# xmcd
#
# Track frame offsets: 
#        150
#        14244
#        30542
#        52390
#        64483
#        78575
#        88738
#        96196
#        112136
#        120012
#        132695
#        148294
#
# Disc length: 2191 seconds
#
# Revision: 2
# Processed by: cddbd v1.5.2PL0 Copyright (c) Steve Scherf et al.
# Submitted via: ExactAudioCopy v1.1
#
DISCID=bb088d0c
DTITLE=Willie Nelson - On The Road Again
DYEAR=2013
DGENRE=Country
TTITLE0=Blue Eyes Crying In The Rain
TTITLE1=Georgia On My Mind
TTITLE2=City Of New Orleans
TTITLE3=Seven Spanish Angles
TTITLE4=Good Hearted Woman
TTITLE5=On The Road Again
TTITLE6=Luckenbach Texas
TTITLE7=You Were Always On My Mind
TTITLE8=If You've Got The Money Honey, I Got The Time
TTITLE9=To All The Girls I've Loved Before
TTITLE10=Whiskey River
TTITLE11=Stardust
EXTD=YEAR: 2006
EXTT0=
EXTT1=
EXTT2=
EXTT3=
EXTT4=
EXTT5=
EXTT6=
EXTT7=
EXTT8=
EXTT9=
EXTT10=
EXTT11=
PLAYORDER=
